<?xml version="1.0" encoding="UTF-8" standalone="no"?>
<!DOCTYPE svg PUBLIC "-//W3C//DTD SVG 1.1//EN" "http://www.w3.org/Graphics/SVG/1.1/DTD/svg11.dtd">
<svg width="100%" height="100%" viewBox="0 0 100 100" version="1.1" xmlns="http://www.w3.org/2000/svg" xmlns:xlink="http://www.w3.org/1999/xlink" xml:space="preserve" xmlns:serif="http://www.serif.com/" style="fill-rule:evenodd;clip-rule:evenodd;stroke-linejoin:round;stroke-miterlimit:2;">
    <path d="M37.46,40.06C37.46,39.508 37.012,39.06 36.46,39.06L26.71,39.06C26.158,39.06 25.71,39.508 25.71,40.06L25.71,58.95C25.71,59.502 26.158,59.95 26.71,59.95L36.46,59.95C37.012,59.95 37.46,59.502 37.46,58.95L37.46,40.06Z" style="fill:rgb(36,67,124);"/>
    <path d="M55.74,73L41.38,61.26C40.68,61.261 40.097,60.7 40.07,60L40.07,39.06C40.075,38.345 40.665,37.76 41.38,37.76L55.74,24.7C56.455,24.7 57.045,25.285 57.05,26L57.05,71.7C57.045,72.415 56.455,73 55.74,73Z" style="fill:rgb(36,67,124);fill-rule:nonzero;"/>
    <path d="M61,61.26C60.719,61.257 60.447,61.166 60.22,61C59.653,60.565 59.537,59.745 59.96,59.17C62.197,55.925 63.463,52.109 63.61,48.17C63.59,44.676 62.307,41.304 60,38.68C59.784,38.44 59.664,38.128 59.664,37.804C59.664,37.086 60.256,36.494 60.974,36.494C61.298,36.494 61.61,36.614 61.85,36.83C64.641,39.956 66.175,44.009 66.15,48.2C66.024,52.693 64.581,57.051 62,60.73C61.765,61.05 61.397,61.245 61,61.26Z" style="fill:rgb(36,67,124);fill-rule:nonzero;"/>
    <path d="M65.53,65.83C65.225,65.831 64.93,65.72 64.7,65.52C64.4,65.275 64.226,64.908 64.226,64.521C64.226,64.217 64.334,63.923 64.53,63.69C64.59,63.61 70.76,56.11 70.76,48.85C70.76,41.59 64.67,35.48 64.61,35.41C64.367,35.166 64.23,34.835 64.23,34.49C64.23,33.774 64.819,33.185 65.535,33.185C65.882,33.185 66.215,33.324 66.46,33.57C66.74,33.85 73.37,40.57 73.37,48.85C73.37,57.13 66.81,65 66.54,65.36C66.29,65.659 65.92,65.831 65.53,65.83Z" style="fill:rgb(36,67,124);fill-rule:nonzero;"/>
    <path d="M69.45,69.74C69.105,69.744 68.772,69.606 68.53,69.36C68.286,69.116 68.148,68.785 68.148,68.44C68.148,68.095 68.286,67.764 68.53,67.52C68.6,67.44 76,59.89 76,48.85C76.013,42.33 73.347,36.082 68.63,31.58C68.38,31.334 68.238,30.997 68.238,30.646C68.238,29.927 68.83,29.336 69.548,29.336C69.822,29.336 70.088,29.421 70.31,29.58C75.649,34.56 78.662,41.559 78.61,48.86C78.482,56.472 75.555,63.777 70.39,69.37C70.141,69.618 69.801,69.752 69.45,69.74Z" style="fill:rgb(36,67,124);fill-rule:nonzero;"/>
    <path d="M49.9,88C35.77,88 20.55,86.9 19.24,86.81C9.369,86.821 1.214,78.76 1.11,68.89C1.05,68 0.5,59.11 0.5,49.3C0.5,39.49 1,32 1.11,31.09C1.251,21.237 9.406,13.213 19.26,13.23C20.82,13.15 41.57,12 49.8,12C58.03,12 79.17,13.11 80.74,13.19C90.607,13.167 98.77,21.213 98.89,31.08C98.97,32.02 99.5,38.48 99.5,49.7C99.5,60.92 99,68 98.89,68.91C98.754,78.758 90.609,86.782 80.76,86.77C79.45,86.86 64,88 49.9,88ZM19.33,18.09C12.087,18.046 6.082,23.948 6,31.19L6,31.38C6,31.46 5.4,39.18 5.4,49.3C5.4,59.42 6,68.56 6,68.65L6,68.81C6.082,76.064 12.106,81.971 19.36,81.91L19.54,81.91C19.7,81.91 35.42,83.1 49.93,83.1C64.44,83.1 80.36,81.93 80.52,81.91L80.7,81.91C87.931,81.938 93.918,76.041 94,68.81L94,68.61C94,68.53 94.6,61.38 94.6,49.7C94.6,38.02 94.01,31.48 94,31.41L94,31.19C93.918,23.936 87.894,18.029 80.64,18.09L80.51,18.09C80.29,18.09 58.01,16.9 49.77,16.9C41.53,16.9 19.65,18.08 19.43,18.09L19.33,18.09Z" style="fill:rgb(36,67,124);fill-rule:nonzero;"/>
</svg>
