<?xml version="1.0" encoding="UTF-8" standalone="no"?>
<!DOCTYPE svg PUBLIC "-//W3C//DTD SVG 1.1//EN" "http://www.w3.org/Graphics/SVG/1.1/DTD/svg11.dtd">
<svg width="100%" height="100%" viewBox="0 0 100 100" version="1.1" xmlns="http://www.w3.org/2000/svg" xmlns:xlink="http://www.w3.org/1999/xlink" xml:space="preserve" xmlns:serif="http://www.serif.com/" style="fill-rule:evenodd;clip-rule:evenodd;stroke-linejoin:round;stroke-miterlimit:2;">
    <path d="M97.54,31.73L87.32,31.73L87.32,13.66C87.32,12.563 86.417,11.66 85.32,11.66L82.61,11.66L82.61,6.59C82.61,5.493 81.707,4.59 80.61,4.59L13.86,4.59C12.763,4.59 11.86,5.493 11.86,6.59L11.86,43.52L2.46,43.52C1.363,43.52 0.46,44.423 0.46,45.52L0.46,93.41C0.46,94.507 1.363,95.41 2.46,95.41L97.54,95.41C98.637,95.41 99.54,94.507 99.54,93.41L99.54,33.7C99.524,32.614 98.626,31.73 97.54,31.73ZM83.39,31.73L59.82,31.73C59.299,31.735 58.8,31.943 58.43,32.31L47.22,43.52L22.11,43.52L22.11,15.63L83.39,15.63L83.39,31.73ZM15.82,8.55L78.68,8.55L78.68,11.7L20.14,11.7C19.043,11.7 18.14,12.603 18.14,13.7L18.14,43.52L15.82,43.52L15.82,8.55ZM95.57,91.45L4.43,91.45L4.43,47.45L48,47.45C48.519,47.45 49.017,47.241 49.38,46.87L60.64,35.66L95.57,35.66L95.57,91.45Z" style="fill:rgb(36,67,124);fill-rule:nonzero;"/>
    <rect x="31.14" y="21.13" width="40.86" height="3.93" style="fill:rgb(36,67,124);"/>
    <rect x="31.14" y="28.98" width="14.14" height="3.93" style="fill:rgb(36,67,124);"/>
</svg>
