<?xml version="1.0" encoding="UTF-8" standalone="no"?>
<!DOCTYPE svg PUBLIC "-//W3C//DTD SVG 1.1//EN" "http://www.w3.org/Graphics/SVG/1.1/DTD/svg11.dtd">
<svg width="100%" height="100%" viewBox="0 0 100 100" version="1.1" xmlns="http://www.w3.org/2000/svg" xmlns:xlink="http://www.w3.org/1999/xlink" xml:space="preserve" xmlns:serif="http://www.serif.com/" style="fill-rule:evenodd;clip-rule:evenodd;stroke-miterlimit:10;">
    <g>
        <path d="M94.8,66.7L94.8,22.5C94.8,19 92,16.2 88.5,16.2L84.8,16.2L83.5,16.2L11.5,16.2C8,16.2 5.2,19 5.2,22.5L5.2,66.7C2.5,67.4 0.5,69.8 0.5,72.8L0.5,77.5C0.5,81 3.3,83.8 6.8,83.8L93.2,83.8C96.7,83.8 99.5,81 99.5,77.5L99.5,72.8C99.5,69.9 97.5,67.4 94.8,66.7ZM8.4,22.5C8.4,20.8 9.8,19.4 11.5,19.4L88.5,19.4C90.2,19.4 91.6,20.8 91.6,22.5L91.6,66.5L8.4,66.5L8.4,22.5ZM96.4,77.5C96.4,79.2 95,80.6 93.3,80.6L6.8,80.6C5.1,80.6 3.7,79.2 3.7,77.5L3.7,72.8C3.7,71.1 5.1,69.7 6.8,69.7L93.2,69.7C94.9,69.7 96.3,71.1 96.3,72.8L96.3,77.5L96.4,77.5Z" style="fill:rgb(36,67,124);fill-rule:nonzero;"/>
        <path d="M58.6,77.5L41.4,77.5C40.5,77.5 39.8,76.8 39.8,75.9C39.8,75 40.5,74.3 41.4,74.3L58.7,74.3C59.6,74.3 60.3,75 60.3,75.9C60.3,76.8 59.5,77.5 58.6,77.5Z" style="fill:rgb(36,67,124);fill-rule:nonzero;"/>
        <path d="M15.4,28L43.5,28" style="fill:none;fill-rule:nonzero;stroke:rgb(36,67,124);stroke-width:1px;"/>
        <path d="M15.4,33.5L40.7,33.5" style="fill:none;fill-rule:nonzero;stroke:rgb(36,67,124);stroke-width:1px;"/>
        <path d="M15.4,39.8L28,39.8" style="fill:none;fill-rule:nonzero;stroke:rgb(36,67,124);stroke-width:1px;"/>
        <path d="M15.4,44.5L30.1,44.5" style="fill:none;fill-rule:nonzero;stroke:rgb(36,67,124);stroke-width:1px;"/>
        <g transform="matrix(0.1648,-0.9863,0.9863,0.1648,32.7136,99.1488)">
            <circle cx="74.9" cy="30.3" r="7" style="fill:rgb(36,67,124);"/>
        </g>
        <path d="M89,62.7L89,45.8C89,45.8 89,40.2 82,40.2L79.2,40.2L73.6,47.2L70.5,40.6C70.5,40.6 63.7,40.2 62.3,44.4C60.9,48.6 59.5,50 59.5,50L49.6,50L36.9,41.5L48.2,51.5L48.2,55.6L62.3,55.6L66.5,48.6L66.5,62.7L89,62.7Z" style="fill:rgb(36,67,124);fill-rule:nonzero;"/>
    </g>
</svg>
