<?xml version="1.0" encoding="UTF-8" standalone="no"?>
<!DOCTYPE svg PUBLIC "-//W3C//DTD SVG 1.1//EN" "http://www.w3.org/Graphics/SVG/1.1/DTD/svg11.dtd">
<svg width="100%" height="100%" viewBox="0 0 100 100" version="1.1" xmlns="http://www.w3.org/2000/svg" xmlns:xlink="http://www.w3.org/1999/xlink" xml:space="preserve" xmlns:serif="http://www.serif.com/" style="fill-rule:evenodd;clip-rule:evenodd;stroke-linejoin:round;stroke-miterlimit:2;">
    <path d="M94.6,6.17L61.91,6.17L61.91,5.72C61.856,3.079 59.641,0.95 57,1L42.53,1C42.5,0.999 42.469,0.999 42.439,0.999C39.834,0.999 37.678,3.115 37.63,5.72L37.63,6.17L5.4,6.17C2.763,6.126 0.554,8.253 0.5,10.89L0.5,77C0.554,79.637 2.763,81.764 5.4,81.72L28.4,81.72L18.4,95.86C18.166,96.195 18.041,96.595 18.041,97.004C18.041,97.68 18.383,98.311 18.95,98.68C19.302,98.907 19.711,99.028 20.13,99.03C20.817,99.033 21.465,98.705 21.87,98.15L33.52,81.69L66.52,81.69L77.69,98.09C78.349,99.019 79.635,99.275 80.6,98.67C81.185,98.305 81.542,97.662 81.542,96.973C81.542,96.581 81.426,96.197 81.21,95.87L71.52,81.69L94.6,81.69C97.226,81.735 99.43,79.625 99.5,77L99.5,10.89C99.446,8.253 97.237,6.126 94.6,6.17ZM41.83,5.72C41.841,5.345 42.155,5.044 42.53,5.05L57,5.05C57.377,5.044 57.694,5.344 57.71,5.72L57.71,11.11C57.694,11.488 57.378,11.79 57,11.79L42.53,11.79C42.153,11.79 41.841,11.486 41.83,11.11L41.83,5.72ZM95.3,77C95.289,77.376 94.977,77.68 94.6,77.68L5.4,77.68C5.023,77.68 4.711,77.376 4.7,77L4.7,10.89C4.711,10.515 5.025,10.214 5.4,10.22L37.63,10.22L37.63,11.11C37.678,13.715 39.834,15.831 42.439,15.831C42.469,15.831 42.5,15.831 42.53,15.83L57,15.83C59.641,15.88 61.856,13.751 61.91,11.11L61.91,10.22L94.6,10.22C94.975,10.214 95.289,10.515 95.3,10.89L95.3,77Z" style="fill:rgb(36,67,124);fill-rule:nonzero;"/>
    <path d="M78.15,37.92L73.8,24.82L60.17,28.5C59.276,28.717 58.641,29.524 58.641,30.444C58.641,30.632 58.668,30.819 58.72,31C59.059,32.085 60.217,32.71 61.31,32.4L67.86,30.64L52.08,57.68L29.08,43.05L20.37,53C20.061,53.362 19.892,53.822 19.892,54.298C19.892,54.9 20.163,55.47 20.63,55.85C21.526,56.593 22.87,56.481 23.63,55.6L29.9,48.44L53.57,63.44L71.81,32.12L74.15,39.12C74.445,39.968 75.252,40.537 76.15,40.53C76.367,40.532 76.584,40.498 76.79,40.43C77.645,40.185 78.238,39.397 78.238,38.508C78.238,38.308 78.209,38.11 78.15,37.92Z" style="fill:rgb(36,67,124);fill-rule:nonzero;"/>
</svg>
