<?xml version="1.0" encoding="UTF-8" standalone="no"?>
<!-- Generator: Adobe Illustrator 19.0.0, SVG Export Plug-In . SVG Version: 6.00 Build 0)  -->

<svg
   xmlns:dc="http://purl.org/dc/elements/1.1/"
   xmlns:cc="http://creativecommons.org/ns#"
   xmlns:rdf="http://www.w3.org/1999/02/22-rdf-syntax-ns#"
   xmlns:svg="http://www.w3.org/2000/svg"
   xmlns="http://www.w3.org/2000/svg"
   xmlns:sodipodi="http://sodipodi.sourceforge.net/DTD/sodipodi-0.dtd"
   xmlns:inkscape="http://www.inkscape.org/namespaces/inkscape"
   version="1.1"
   id="Capa_1"
   x="0px"
   y="0px"
   viewBox="0 0 473.932 473.932"
   style="enable-background:new 0 0 473.932 473.932;"
   xml:space="preserve"
   inkscape:version="0.91 r13725"
   sodipodi:docname="social_blue.svg"><metadata
     id="metadata73"><rdf:RDF><cc:Work
         rdf:about=""><dc:format>image/svg+xml</dc:format><dc:type
           rdf:resource="http://purl.org/dc/dcmitype/StillImage" /><dc:title></dc:title></cc:Work></rdf:RDF></metadata><defs
     id="defs71" /><sodipodi:namedview
     pagecolor="#ffffff"
     bordercolor="#666666"
     borderopacity="1"
     objecttolerance="10"
     gridtolerance="10"
     guidetolerance="10"
     inkscape:pageopacity="0"
     inkscape:pageshadow="2"
     inkscape:window-width="1239"
     inkscape:window-height="712"
     id="namedview69"
     showgrid="false"
     inkscape:zoom="0.49796173"
     inkscape:cx="386.5759"
     inkscape:cy="236.966"
     inkscape:window-x="0"
     inkscape:window-y="27"
     inkscape:window-maximized="0"
     inkscape:current-layer="Capa_1" /><g
     id="g3"
     style="fill:#24437c;fill-opacity:1"><g
       id="g5"
       style="fill:#24437c;fill-opacity:1"><path
         style="fill:#24437c;fill-opacity:1"
         d="M385.513,301.214c-27.438,0-51.64,13.072-67.452,33.09l-146.66-75.002    c1.92-7.161,3.3-14.56,3.3-22.347c0-8.477-1.639-16.458-3.926-24.224l146.013-74.656c15.725,20.924,40.553,34.6,68.746,34.6    c47.758,0,86.391-38.633,86.391-86.348C471.926,38.655,433.292,0,385.535,0c-47.65,0-86.326,38.655-86.326,86.326    c0,7.809,1.381,15.229,3.322,22.412L155.892,183.74c-15.833-20.039-40.079-33.154-67.56-33.154    c-47.715,0-86.326,38.676-86.326,86.369s38.612,86.348,86.326,86.348c28.236,0,53.043-13.719,68.832-34.664l145.948,74.656    c-2.287,7.744-3.947,15.79-3.947,24.289c0,47.693,38.676,86.348,86.326,86.348c47.758,0,86.391-38.655,86.391-86.348    C471.904,339.848,433.271,301.214,385.513,301.214z"
         id="path7" /></g><g
       id="g9"
       style="fill:#24437c;fill-opacity:1" /><g
       id="g11"
       style="fill:#24437c;fill-opacity:1" /><g
       id="g13"
       style="fill:#24437c;fill-opacity:1" /><g
       id="g15"
       style="fill:#24437c;fill-opacity:1" /><g
       id="g17"
       style="fill:#24437c;fill-opacity:1" /><g
       id="g19"
       style="fill:#24437c;fill-opacity:1" /><g
       id="g21"
       style="fill:#24437c;fill-opacity:1" /><g
       id="g23"
       style="fill:#24437c;fill-opacity:1" /><g
       id="g25"
       style="fill:#24437c;fill-opacity:1" /><g
       id="g27"
       style="fill:#24437c;fill-opacity:1" /><g
       id="g29"
       style="fill:#24437c;fill-opacity:1" /><g
       id="g31"
       style="fill:#24437c;fill-opacity:1" /><g
       id="g33"
       style="fill:#24437c;fill-opacity:1" /><g
       id="g35"
       style="fill:#24437c;fill-opacity:1" /><g
       id="g37"
       style="fill:#24437c;fill-opacity:1" /></g><g
     id="g39" /><g
     id="g41" /><g
     id="g43" /><g
     id="g45" /><g
     id="g47" /><g
     id="g49" /><g
     id="g51" /><g
     id="g53" /><g
     id="g55" /><g
     id="g57" /><g
     id="g59" /><g
     id="g61" /><g
     id="g63" /><g
     id="g65" /><g
     id="g67" /></svg>