<?xml version="1.0" encoding="UTF-8" standalone="no"?>
<!DOCTYPE svg PUBLIC "-//W3C//DTD SVG 1.1//EN" "http://www.w3.org/Graphics/SVG/1.1/DTD/svg11.dtd">
<svg width="100%" height="100%" viewBox="0 0 100 100" version="1.1" xmlns="http://www.w3.org/2000/svg" xmlns:xlink="http://www.w3.org/1999/xlink" xml:space="preserve" xmlns:serif="http://www.serif.com/" style="fill-rule:evenodd;clip-rule:evenodd;stroke-linejoin:round;stroke-miterlimit:2;">
    <path d="M49.9,88C35.77,88 20.55,86.9 19.24,86.81C9.369,86.821 1.214,78.76 1.11,68.89C1.05,68 0.5,59.11 0.5,49.3C0.5,39.49 1,32 1.11,31.09C1.251,21.237 9.406,13.213 19.26,13.23C20.82,13.15 41.57,12 49.8,12C58.03,12 79.17,13.11 80.74,13.19C90.607,13.167 98.77,21.213 98.89,31.08C98.97,32.02 99.5,38.48 99.5,49.7C99.5,60.92 99,68 98.89,68.91C98.754,78.758 90.609,86.782 80.76,86.77C79.45,86.86 64,88 49.9,88ZM19.33,18.09C12.087,18.046 6.082,23.948 6,31.19L6,31.38C6,31.46 5.4,39.18 5.4,49.3C5.4,59.42 6,68.56 6,68.65L6,68.81C6.082,76.064 12.106,81.971 19.36,81.91L19.54,81.91C19.7,81.91 35.42,83.1 49.93,83.1C64.44,83.1 80.36,81.93 80.52,81.91L80.7,81.91C87.931,81.938 93.918,76.041 94,68.81L94,68.61C94,68.53 94.6,61.38 94.6,49.7C94.6,38.02 94.01,31.48 94,31.41L94,31.19C93.918,23.936 87.894,18.029 80.64,18.09L80.51,18.09C80.29,18.09 58.01,16.9 49.77,16.9C41.53,16.9 19.65,18.08 19.43,18.09L19.33,18.09Z" style="fill:rgb(36,67,124);fill-rule:nonzero;"/>
    <path d="M36.94,70.65C36.937,70.65 36.933,70.65 36.93,70.65C35.772,70.65 34.82,69.698 34.82,68.54C34.82,68.533 34.82,68.527 34.82,68.52L34.82,31.52C34.819,31.498 34.819,31.477 34.819,31.455C34.819,30.292 35.776,29.335 36.939,29.335C37.312,29.335 37.678,29.434 38,29.62L69.56,47.23C70.232,47.606 70.649,48.319 70.649,49.089C70.649,49.826 70.267,50.512 69.64,50.9L38.06,70.33C37.723,70.537 37.336,70.648 36.94,70.65Z" style="fill:rgb(36,67,124);fill-rule:nonzero;"/>
</svg>
